<svg xmlns="http://www.w3.org/2000/svg" viewBox="0 0 24 24" fill="none" color="#776D65" stroke="currentColor" stroke-width="1.8" stroke-linecap="round" stroke-linejoin="round" aria-label="熊大爷社群图标·default"><g class="dumpling-ears" fill="#F3ECE2"><path d="M3.3 7.2C2 5.7 2.5 3.2 4.4 2.4c1.8-.8 4 .4 4.4 2.3-2-.4-4 .5-5.5 2.5Z"/><path d="M20.7 7.2c1.3-1.5.8-4-1.1-4.8-1.8-.8-4 .4-4.4 2.3 2-.4 4 .5 5.5 2.5Z"/><path d="M4.4 3.1l.4 1m1-1.3.2 1.1m13.6-.8-.4 1m-1-1.3-.2 1.1" fill="none"/></g><g><circle cx="9" cy="12" r="3"/><circle cx="17" cy="13" r="2.4"/><path d="M3 21a6 6 0 0 1 12 0m1-4a5 5 0 0 1 5 4"/><path d="M7.8 12q1.2 1 2.4 0m5.8 1q1 .8 2 0"/></g></svg>