<svg xmlns="http://www.w3.org/2000/svg" viewBox="0 0 24 24" fill="none" color="#746E68" stroke="currentColor" stroke-width="1.35" stroke-linecap="round" stroke-linejoin="round" aria-label="熊大爷会员码图标·active"><path d="M4.1 9V5.4c0-.75.55-1.3 1.3-1.3H9L7.7 5.35M15 4.1h3.6c.75 0 1.3.55 1.3 1.3V9l-1.35-1.25" stroke="#A33A3E"/><path d="M19.9 15v3.6c0 .75-.55 1.3-1.3 1.3H15M9 19.9H5.4c-.75 0-1.3-.55-1.3-1.3V15"/><path d="M8 9.1h3v3H8zm5 0h3v3h-3zm-5 5h3v2.8H8zm5 0h1.2v1.2H13zm2 1.6h1v1.2h-1"/><circle cx="12" cy="13" r="1.15" fill="#A33A3E" stroke="none"/></svg>
