<svg xmlns="http://www.w3.org/2000/svg" viewBox="0 0 200 200"><rect width="200" height="200" rx="18" fill="#fffdf9"/><g fill="#241e1b"><path d="M18 18h52v52H18zm10 10v32h32V28zm9 9h14v14H37zM130 18h52v52h-52zm10 10v32h32V28zm9 9h14v14h-14zM18 130h52v52H18zm10 10v32h32v-32zm9 9h14v14H37z"/><path d="M86 18h12v12H86zm22 0h12v24h-12zM82 42h18v12H82zm24 12h14v16h-14zM82 70h12v14H82zm20 8h18v12h-18zm30 4h12v16h-12zm18 0h30v12h-30zM78 100h18v18H78zm26-4h14v12h-14zm20 8h26v12h-26zm34-2h22v18h-22zM82 126h14v28H82zm22-4h18v12h-18zm26 4h14v16h-14zm20 2h30v12h-30zM78 162h22v20H78zm30-18h14v38h-14zm24 8h18v14h-18zm28-4h20v34h-20zm-28 28h18v6h-18z"/></g><circle cx="100" cy="100" r="18" fill="#fffdf9"/><path d="M88 101q12-13 24 0-12 12-24 0Z" fill="none" stroke="#9f3b3b" stroke-width="4" stroke-linecap="round"/></svg>
