<svg xmlns="http://www.w3.org/2000/svg" viewBox="0 0 24 24" fill="none" color="#746E68" stroke="currentColor" stroke-width="1.35" stroke-linecap="round" stroke-linejoin="round" aria-label="熊大爷点餐图标·active"><path d="M7.15 12.3c.45-3.15 2.35-5.1 4.85-5.1s4.4 1.95 4.85 5.1Z" fill="#F4DEDC" stroke="none"/><path d="M5 12.4h14l-1.05 5a2.45 2.45 0 0 1-2.4 1.95h-7.1a2.45 2.45 0 0 1-2.4-1.95Z"/><path d="M7.15 12.3c.45-3.15 2.35-5.1 4.85-5.1s4.4 1.95 4.85 5.1M9.1 9l1.05 1.25M12 7.45v2m2.9-.45-1.05 1.25" stroke="#A33A3E"/><path d="M10.7 4.75c.8-.75 1.8-.75 2.6 0"/></svg>
