<svg xmlns="http://www.w3.org/2000/svg" viewBox="0 0 24 24" fill="none" color="#776D65" stroke="currentColor" stroke-width="1.8" stroke-linecap="round" stroke-linejoin="round" aria-label="熊大爷点餐图标·default"><g class="dumpling-ears" fill="#F3ECE2"><path d="M3.3 7.2C2 5.7 2.5 3.2 4.4 2.4c1.8-.8 4 .4 4.4 2.3-2-.4-4 .5-5.5 2.5Z"/><path d="M20.7 7.2c1.3-1.5.8-4-1.1-4.8-1.8-.8-4 .4-4.4 2.3 2-.4 4 .5 5.5 2.5Z"/><path d="M4.4 3.1l.4 1m1-1.3.2 1.1m13.6-.8-.4 1m-1-1.3-.2 1.1" fill="none"/></g><g><path d="M4 10.5h16l-1.2 7A3 3 0 0 1 15.8 20H8.2a3 3 0 0 1-3-2.5z"/><path d="M7 10.5q2.5-3.5 5 0m0 0q2.5-3.5 5 0M8 7V5m4 2V4m4 3V5"/></g></svg>