<svg xmlns="http://www.w3.org/2000/svg" viewBox="0 0 24 24" fill="none" color="#746E68" stroke="currentColor" stroke-width="1.35" stroke-linecap="round" stroke-linejoin="round" aria-label="熊大爷订单图标·active"><path d="M6 5.5c.8.8 1.6.8 2.4 0 .8.8 1.6.8 2.4 0 .8.8 1.6.8 2.4 0 .8.8 1.6.8 2.4 0 .8.8 1.6.8 2.4 0" stroke="#A33A3E"/><path d="M6 5.5v14L8.2 18l2.2 1.5 2.2-1.5 2.2 1.5L17 18l2.2 1.5v-14"/><path d="M9 10h6m-6 3.5h6M9 17h3.5"/><circle cx="16.6" cy="17" r="1" fill="#A33A3E" stroke="none"/></svg>
