<svg xmlns="http://www.w3.org/2000/svg" viewBox="0 0 24 24" fill="none" color="#9F3B3B" stroke="currentColor" stroke-width="1.8" stroke-linecap="round" stroke-linejoin="round" aria-label="熊大爷订单图标·active"><circle cx="12" cy="12" r="11.25" fill="#F9EEEE" stroke="none"/><g class="dumpling-ears" fill="#F4D9D9"><path d="M3.3 7.2C2 5.7 2.5 3.2 4.4 2.4c1.8-.8 4 .4 4.4 2.3-2-.4-4 .5-5.5 2.5Z"/><path d="M20.7 7.2c1.3-1.5.8-4-1.1-4.8-1.8-.8-4 .4-4.4 2.3 2-.4 4 .5 5.5 2.5Z"/><path d="M4.4 3.1l.4 1m1-1.3.2 1.1m13.6-.8-.4 1m-1-1.3-.2 1.1" fill="none"/></g><g><path d="M6 6.5h12V21l-3-2-3 2-3-2-3 2z"/><path d="M9 10h6m-6 4h6m-6 3h4"/><path d="M10 7.2q2-1.8 4 0"/></g></svg>