<svg xmlns="http://www.w3.org/2000/svg" viewBox="0 0 24 24" fill="none" color="#746E68" stroke="currentColor" stroke-width="1.35" stroke-linecap="round" stroke-linejoin="round" aria-label="熊大爷亲邻券图标·default"><path d="M4.5 7.2c1.2 0 1.85-.7 2.15-2 1.1 1.35 2.25 1.35 3.35 0 1.1 1.35 2.25 1.35 3.35 0 1.1 1.35 2.25 1.35 3.35 0 .3 1.3.95 2 2.8 2v3.4a2 2 0 0 0 0 4v3.2c0 .75-.6 1.35-1.35 1.35H5.85c-.75 0-1.35-.6-1.35-1.35v-3.2a2 2 0 0 0 0-4Z"/><path d="M9 7.1v12.1" stroke-dasharray="1 2"/><circle cx="14.1" cy="13.2" r="2.1"/><path d="m13.1 13.2.7.7 1.3-1.5"/></svg>
