<svg xmlns="http://www.w3.org/2000/svg" viewBox="0 0 24 24" fill="none" color="#9F3B3B" stroke="currentColor" stroke-width="1.8" stroke-linecap="round" stroke-linejoin="round" aria-label="熊大爷亲邻券图标·active"><circle cx="12" cy="12" r="11.25" fill="#F9EEEE" stroke="none"/><g class="dumpling-ears" fill="#F4D9D9"><path d="M3.3 7.2C2 5.7 2.5 3.2 4.4 2.4c1.8-.8 4 .4 4.4 2.3-2-.4-4 .5-5.5 2.5Z"/><path d="M20.7 7.2c1.3-1.5.8-4-1.1-4.8-1.8-.8-4 .4-4.4 2.3 2-.4 4 .5 5.5 2.5Z"/><path d="M4.4 3.1l.4 1m1-1.3.2 1.1m13.6-.8-.4 1m-1-1.3-.2 1.1" fill="none"/></g><g><path d="M4 7h16v4a2 2 0 0 0 0 4v4H4v-4a2 2 0 0 0 0-4z"/><path d="M9 7v12"/><path d="M11.2 13c.5-1.8 3.1-1.8 3.6 0-.5 1.8-3.1 1.8-3.6 0Z"/><circle cx="12.2" cy="12.5" r=".4" fill="currentColor" stroke="none"/><circle cx="13.8" cy="12.5" r=".4" fill="currentColor" stroke="none"/></g></svg>