<svg xmlns="http://www.w3.org/2000/svg" viewBox="0 0 24 24" fill="none" color="#746E68" stroke="currentColor" stroke-width="1.35" stroke-linecap="round" stroke-linejoin="round" aria-label="熊大爷积分图标·default"><path d="M12 3.8 14 5l2.3-.25.95 2.1 2 1.2-.45 2.3 1.1 2-1.35 1.85.2 2.35-2.1.8-1.25 1.95-2.3-.55-2.1 1-1.75-1.5-2.35.05-.6-2.2-1.8-1.45.75-2.2-.75-2.2 1.8-1.45.6-2.2 2.35.05L11 5Z"/><ellipse cx="9.8" cy="11.5" rx="1.05" ry="1.35" transform="rotate(22 9.8 11.5)"/><ellipse cx="14.2" cy="11.5" rx="1.05" ry="1.35" transform="rotate(-22 14.2 11.5)"/><path d="M10.9 14.4q1.1.8 2.2 0"/></svg>
