<svg xmlns="http://www.w3.org/2000/svg" viewBox="0 0 24 24" fill="none" color="#776D65" stroke="currentColor" stroke-width="1.8" stroke-linecap="round" stroke-linejoin="round" aria-label="熊大爷积分图标·default"><g class="dumpling-ears" fill="#F3ECE2"><path d="M3.3 7.2C2 5.7 2.5 3.2 4.4 2.4c1.8-.8 4 .4 4.4 2.3-2-.4-4 .5-5.5 2.5Z"/><path d="M20.7 7.2c1.3-1.5.8-4-1.1-4.8-1.8-.8-4 .4-4.4 2.3 2-.4 4 .5 5.5 2.5Z"/><path d="M4.4 3.1l.4 1m1-1.3.2 1.1m13.6-.8-.4 1m-1-1.3-.2 1.1" fill="none"/></g><g><circle cx="12" cy="13" r="8"/><ellipse cx="9.4" cy="12.5" rx="1.2" ry="1.5" transform="rotate(20 9.4 12.5)"/><ellipse cx="14.6" cy="12.5" rx="1.2" ry="1.5" transform="rotate(-20 14.6 12.5)"/><path d="M10.3 15.5q1.7 1.3 3.4 0"/></g></svg>