<svg xmlns="http://www.w3.org/2000/svg" viewBox="0 0 24 24" fill="none" color="#746E68" stroke="currentColor" stroke-width="1.35" stroke-linecap="round" stroke-linejoin="round" aria-label="熊大爷储值图标·active"><path d="M4 8.1h14.4A1.6 1.6 0 0 1 20 9.7v8.6H5.6A1.6 1.6 0 0 1 4 16.7Z"/><path d="M4.2 8.1c1.2-.25 1.8-.95 2-2.1 1.05 1.15 2.1 1.15 3.15 0 1.05 1.15 2.1 1.15 3.15 0 1.05 1.15 2.1 1.15 3.15 0 .25 1.1.85 1.8 2 2.1" stroke="#A33A3E"/><path d="M15 11.8h5v3.4h-5a1.7 1.7 0 0 1 0-3.4Z" fill="#F4DEDC" stroke="#A33A3E"/><circle cx="15.2" cy="13.5" r=".65" fill="#A33A3E" stroke="none"/></svg>
